# xmcd
#
# Track frame offsets: 
#        182
#        29205
#        56882
#        92437
#        129640
#        178692
#        252132
#        289242
#        339147
#
# Disc length: 4715 seconds
#
# Revision: 3
# Processed by: cddbd v1.5.2PL0 Copyright (c) Steve Scherf et al.
# Submitted via: ExactAudioCopy v0.95a5
#
DISCID=82126909
DTITLE=Ten Years After - Recorded Live
DYEAR=1973
DGENRE=Rock
TTITLE0=One Of These Days
TTITLE1=You Give Me Loving
TTITLE2=Good Morning Little Schoolgirl
TTITLE3=Hobbit
TTITLE4=Help Me
TTITLE5=I Can't Keep From Crying
TTITLE6=Slow Blues in "C"
TTITLE7=I'm Going Home
TTITLE8=Choo Choo Mama
EXTD=
EXTT0=
EXTT1=
EXTT2=
EXTT3=
EXTT4=
EXTT5=
EXTT6=
EXTT7=
EXTT8=
PLAYORDER=
